<svg width="16" height="14" viewBox="0 0 16 14" fill="none" xmlns="http://www.w3.org/2000/svg">
<path d="M6.15385 12.7273C6.15385 13.072 6.03205 13.3703 5.78846 13.6222C5.54487 13.8741 5.25641 14 4.92308 14C4.58974 14 4.30128 13.8741 4.05769 13.6222C3.8141 13.3703 3.69231 13.072 3.69231 12.7273C3.69231 12.3826 3.8141 12.0843 4.05769 11.8324C4.30128 11.5805 4.58974 11.4545 4.92308 11.4545C5.25641 11.4545 5.54487 11.5805 5.78846 11.8324C6.03205 12.0843 6.15385 12.3826 6.15385 12.7273ZM14.7692 12.7273C14.7692 13.072 14.6474 13.3703 14.4038 13.6222C14.1603 13.8741 13.8718 14 13.5385 14C13.2051 14 12.9167 13.8741 12.6731 13.6222C12.4295 13.3703 12.3077 13.072 12.3077 12.7273C12.3077 12.3826 12.4295 12.0843 12.6731 11.8324C12.9167 11.5805 13.2051 11.4545 13.5385 11.4545C13.8718 11.4545 14.1603 11.5805 14.4038 11.8324C14.6474 12.0843 14.7692 12.3826 14.7692 12.7273ZM16 1.90909V7C16 7.15909 15.9471 7.29995 15.8413 7.42259C15.7356 7.54522 15.6058 7.61648 15.4519 7.63636L5.41346 8.84943C5.4968 9.24716 5.53846 9.47917 5.53846 9.54545C5.53846 9.65152 5.46154 9.86364 5.30769 10.1818H14.1538C14.3205 10.1818 14.4647 10.2448 14.5865 10.3707C14.7083 10.4967 14.7692 10.6458 14.7692 10.8182C14.7692 10.9905 14.7083 11.1397 14.5865 11.2656C14.4647 11.3916 14.3205 11.4545 14.1538 11.4545H4.30769C4.14103 11.4545 3.99679 11.3916 3.875 11.2656C3.75321 11.1397 3.69231 10.9905 3.69231 10.8182C3.69231 10.7453 3.71795 10.6409 3.76923 10.505C3.82051 10.3691 3.87179 10.2498 3.92308 10.147C3.97436 10.0443 4.04327 9.91169 4.12981 9.74929C4.21635 9.58688 4.26603 9.48911 4.27885 9.45597L2.57692 1.27273H0.615385C0.448718 1.27273 0.304487 1.20975 0.182692 1.08381C0.0608974 0.95786 0 0.808712 0 0.636364C0 0.464015 0.0608974 0.314867 0.182692 0.18892C0.304487 0.0629735 0.448718 0 0.615385 0H3.07692C3.17949 0 3.27083 0.0215436 3.35096 0.0646307C3.43109 0.107718 3.49359 0.159091 3.53846 0.21875C3.58333 0.278409 3.625 0.359612 3.66346 0.462358C3.70192 0.565104 3.72756 0.651278 3.74038 0.720881C3.75321 0.790483 3.77083 0.888258 3.79327 1.0142C3.81571 1.14015 3.83013 1.22633 3.83654 1.27273H15.3846C15.5513 1.27273 15.6955 1.3357 15.8173 1.46165C15.9391 1.58759 16 1.73674 16 1.90909Z" fill="#FAFAFA"/>
</svg>
